# xmcd CD database file
#
# Track frame offsets:
#	150
#	40319
#	86482
#	114059
#
# Disc length: 1979 seconds
#
# Revision: 0
# Processed by: cddbd v1.5.2PL0 Copyright (c) Steve Scherf et al.
# Submitted via: CDex 1.51
#
DISCID=2307b904
DTITLE=Mankunku Quartet - Yakhal' Inkomo
DYEAR=1968
DGENRE=Jazz
TTITLE0=Yakhal' Inkomo
TTITLE1=Dedication (to Daddy Trane and Brother Shorter)
TTITLE2=Doodlin'
TTITLE3=Bessie's blues
EXTD=YEAR: 1968
EXTT0=
EXTT1=
EXTT2=
EXTT3=
PLAYORDER=
